<svg xmlns="http://www.w3.org/2000/svg" height="512" width="512"><path d="M354.404 344.404h-30.689l-15.942-7.095v-19.357c22.321-12.297 39.832-32.285 48.944-56.368h13.676c32.567 0 59.063-26.496 59.063-59.063 0-21.029-11.056-39.515-27.652-49.982v-6.735C401.805 65.407 336.397 0 256 0S110.195 65.407 110.195 145.805v6.73c-16.6 10.467-27.659 28.954-27.659 49.986 0 32.567 26.496 59.063 59.063 59.063h13.683c9.112 24.083 26.623 44.071 48.944 56.368v19.277l-16.121 7.174h-30.51C70.697 344.404 0 415.102 0 502c0 5.522 4.477 10 10 10h201c5.523 0 10-4.478 10-10s-4.477-10-10-10H20.359c4.986-69.108 61.239-124.232 130.816-127.444-.026.084-.062.164-.086.248a10.002 10.002 0 001.35 8.362l47.305 69.544a10 10 0 0015.34 1.447l40.827-40.827 40.826 40.827a10 10 0 0015.34-1.447l47.306-69.544a10.005 10.005 0 001.35-8.362c-.025-.087-.061-.168-.088-.254 69.66 3.125 126.006 58.284 130.996 127.451H301c-5.522 0-10 4.478-10 10s4.478 10 10 10h201c5.522 0 10-4.478 10-10 0-86.899-70.697-157.597-157.596-157.597zm-10.967-188.787c-20.545-2.821-39.825-11.007-56.206-23.967a9.999 9.999 0 00-12.291-.091c-21.482 16.482-47.18 25.194-74.314 25.194a122.27 122.27 0 01-32.029-4.27v-5.084c0-48.192 39.207-87.399 87.399-87.399s87.4 39.207 87.4 87.399c.001 0 .02 7.95.041 8.218zm26.957 85.968h-6.757v-78.127h6.757c21.54 0 39.063 17.523 39.063 39.064 0 21.539-17.523 39.063-39.063 39.063zM256 20c68.957 0 125.124 55.769 125.789 124.572a59.113 59.113 0 00-11.396-1.114h-7.077C361.234 86.057 313.897 40 255.996 40s-105.238 46.057-107.32 103.458H141.6c-3.896 0-7.701.389-11.389 1.113C130.877 75.769 187.044 20 256 20zM148.356 241.585H141.6c-21.54 0-39.063-17.524-39.063-39.064s17.523-39.064 39.063-39.064h6.757v78.128zm20-17.98v-50.54a142.442 142.442 0 0032.27 3.688c29.018 0 56.629-8.565 80.319-24.845 18.62 13.124 40.042 21.272 62.691 23.886v48.349a87.28 87.28 0 01-4.386 26.866h-47.754c-4.132-11.684-15.284-20.08-28.364-20.08h-13.387c-16.586 0-30.079 13.494-30.079 30.08s13.493 30.08 30.079 30.08h13.387c13.081 0 24.233-8.396 28.364-20.08h38.188c-15.615 24.191-42.81 40.239-73.684 40.239-48.327 0-87.644-39.316-87.644-87.643zm104.857 37.404c0 5.559-4.521 10.08-10.08 10.08h-13.387c-5.558 0-10.079-4.521-10.079-10.08s4.521-10.08 10.079-10.08h13.387c5.558 0 10.08 4.521 10.08 10.08zM256 331.248a107.28 107.28 0 0031.773-4.788v16.722l-31.862 31.862-31.685-31.684v-16.9A107.292 107.292 0 00256 331.248zm-46.515 90.223l-33.778-49.658 33.692-14.994 32.369 32.369zm92.851 0l-32.283-32.283 32.369-32.369 33.693 14.994z" data-original="#000000" class="active-path" data-old_color="#000000" fill="#ec644b"/><path d="M256 492c-2.63 0-5.21 1.069-7.07 2.93-1.86 1.86-2.93 4.44-2.93 7.07s1.069 5.21 2.93 7.069c1.86 1.86 4.44 2.931 7.07 2.931s5.21-1.07 7.069-2.931C264.93 507.21 266 504.63 266 502s-1.07-5.21-2.931-7.07A10.067 10.067 0 00256 492z" data-original="#000000" class="active-path" data-old_color="#000000" fill="#ec644b"/></svg>