<svg xmlns="http://www.w3.org/2000/svg" width="512" height="512" viewBox="0 0 480.006 480.006"><g fill="#fff" xmlns="http://www.w3.org/2000/svg"><path d="M446.192 162.883l31.256-29.016A8 8 0 00472 120.003h-6.864L479.928 9.059A8 8 0 00472 .003h-32a8 8 0 00-6.656 3.56l-77.624 116.44H269.6L303 59.891a7.999 7.999 0 00-.104-7.944A8 8 0 00296 48.003h-32a7.998 7.998 0 00-4.8 1.6l-93.864 70.4h-57.44c-48.783-.044-92.103 31.179-107.488 77.472A7.984 7.984 0 000 200.003c0 13.255 10.745 24 24 24h165.6l69.984 46.656a8.042 8.042 0 004.416 1.344h32a8 8 0 005.944-13.352l-31.48-34.984a300.994 300.994 0 00122.664-31.288l18.824-9.408 56.896 24.384a8 8 0 008.8-13.008l-31.456-31.464zm-1.912-146.88h18.584l-13.864 104h-74.056l69.336-104zm-177.616 48H282.4l-31.104 56H192l74.664-56zm90.184 95.352l35.84 15.36-6.712 3.352A284.954 284.954 0 01259.2 208.003h-2.824l-10.984-12.2-15.432-17.152-11.888 10.704 7.2 8 16.328 18.168 36.44 40.48H266.4l-69.984-46.656-48-32-8.88 13.312 26.064 17.344H24a8.001 8.001 0 01-7.92-6.896 97.077 97.077 0 0119.688-33.104H88v-16H54.512a97.112 97.112 0 0153.384-16h343.736l-16.76 15.56-5.216-5.216a8 8 0 00-5.656-2.344h-64a8 8 0 00-3.152 15.352zm42.128.648h21.712l16.28 16.28-37.992-16.28z" data-original="#000000"/><path data-original="#000000" d="M112 152.003h16v16h-16zm32 0h16v16h-16zm32 0h16v16h-16zm32 0h16v16h-16zm32 0h16v16h-16zm0 136c-53.019 0-96 42.981-96 96s42.981 96 96 96 96-42.981 96-96c-.057-52.995-43.004-95.943-96-96zm-38.584 25.968a106.81 106.81 0 00-11.368 26.136 146.536 146.536 0 00-19.92 5.032 80.584 80.584 0 0131.288-31.168zM160 384.003a79.581 79.581 0 012.008-17.6 80.744 80.744 0 0124.152-9.136 166.384 166.384 0 00-2.16 26.736c.004 6.147.343 12.29 1.016 18.4a74.339 74.339 0 01-24.552-9.88 80.57 80.57 0 01-.464-8.52zm5.616 29.183a130.59 130.59 0 0022.248 6.313 113.27 113.27 0 0013.552 34.56 80.35 80.35 0 01-35.8-40.873zM232 462.299c-11.496-4.888-21.352-20-26.984-40.192 9.624 1.096 18.912 1.608 26.984 1.792v38.4zm0-54.464a269.325 269.325 0 01-30.4-2.304 149.866 149.866 0 01-1.6-21.528 147.21 147.21 0 013.008-29.768A274.772 274.772 0 01232 352.163v55.672zm0-71.744c-7.272.168-15.6.584-24.288 1.48 5.808-15.968 14.432-27.696 24.288-31.88v30.4zm16-30.4c9.856 4.184 18.48 15.944 24.288 31.896-8.688-.896-17.016-1.312-24.288-1.48v-30.416zm0 156.624v-38.416c8.072-.184 17.36-.68 26.984-1.776-5.632 20.168-15.488 35.304-26.984 40.192zm0-54.48v-55.672c9.694.179 19.371.87 28.992 2.072A147.21 147.21 0 01280 384.003c-.015 7.205-.55 14.4-1.6 21.528a269.325 269.325 0 01-30.4 2.304zm30.604 46.188a113.301 113.301 0 0013.532-34.524 130.561 130.561 0 0022.288-6.328 80.35 80.35 0 01-35.82 40.852zM320 384.003a80.485 80.485 0 01-.464 8.488 74.35 74.35 0 01-24.552 9.912 169.071 169.071 0 001.016-18.4 166.432 166.432 0 00-2.16-26.712v-.016a80.72 80.72 0 0124.152 9.128 79.581 79.581 0 012.008 17.6zm-30.048-43.896a106.81 106.81 0 00-11.368-26.136 80.584 80.584 0 0131.288 31.168 146.536 146.536 0 00-19.92-5.032zM432 304.003h-68c-11.046 0-20-8.954-20-20s8.954-20 20-20h56c19.873-.022 35.978-16.127 36-36v-12h-16v12c0 11.046-8.954 20-20 20h-56c-19.882 0-36 16.118-36 36s16.118 36 36 36h68c13.255 0 24 10.745 24 24s-10.745 24-24 24h-16v16h16c22.091 0 40-17.909 40-40s-17.909-40-40-40z"/><path data-original="#000000" d="M384 368.003h16v16h-16zm-32 0h16v16h-16z"/></g></svg>