<svg xmlns="http://www.w3.org/2000/svg" viewBox="0 0 464 464"><path d="M440 1.5H24c-13.255 0-24 10.745-24 24s10.745 24 24 24v328a8 8 0 008 8h95.352l-53.6 67 12.496 10 61.6-77H224v17.472c-12.497 4.418-19.046 18.131-14.627 30.627 4.418 12.497 18.131 19.046 30.627 14.627s19.046-18.131 14.627-30.627A23.998 23.998 0 00240 402.972V385.5h76.152l61.6 77 12.496-10-53.6-67H432a8 8 0 008-8v-328c13.255 0 24-10.745 24-24s-10.745-24-24-24zm-208 432a8 8 0 110-16 8 8 0 010 16zm192-64H40v-320h384v320zm16-336H24a8 8 0 010-16h416a8 8 0 010 16z"/><path d="M72 257.5h128v16H72zm0 32h128v16H72zm0 32h96v16H72zm64-96h64v16h-64zm128-112h128v16H264zm0 32h128v16H264zm0 32h96v16h-96zm64-96h64v16h-64zm-192-8c-35.346 0-64 28.654-64 64 .04 35.33 28.67 63.96 64 64 35.346 0 64-28.654 64-64 0-35.346-28.654-64-64-64zm8.24 16.768a47.944 47.944 0 0130.448 18.944L144 124.54l.24-34.272zm-35.903 8.086a47.874 47.874 0 0119.951-8.135L128 134.3l-31.2 30.776c-15.239-21.611-10.074-51.483 11.537-66.722zm41.657 85.057A47.982 47.982 0 01136 185.5a47.66 47.66 0 01-28-9.088l32.864-32.4 41.032-20.52c7.736 25.356-6.547 52.182-31.902 59.919zM248 297.5h16v40h-16zm128-16h16v56h-16zm-96-8h16v64h-16zm32-32h16v96h-16zm32 24h16v72h-16zm-240-40h16v16h-16zm192-144h16v16h-16z"/></svg>