<svg height="512" width="512" xmlns="http://www.w3.org/2000/svg"><path d="M334.954 137.804H89.765a7.532 7.532 0 100 15.064h245.19a7.532 7.532 0 10-.001-15.064zM89.765 100.621h122.594a7.532 7.532 0 100-15.064H89.765a7.532 7.532 0 00-7.532 7.532 7.531 7.531 0 007.532 7.532zm245.189 83.475H89.765a7.532 7.532 0 100 15.064h245.19a7.532 7.532 0 10-.001-15.064z"/><path d="M145.618 459.668H67.151c-12.879 0-23.358-10.478-23.358-23.357V38.421c0-12.879 10.479-23.358 23.358-23.358h226.056c.73 0 1.449.067 2.16.163V62.2c0 21.186 17.236 38.421 38.421 38.421h46.973c.097.712.163 1.431.163 2.161v128.261a7.532 7.532 0 1015.064 0v-128.26c0-8.262-3.218-16.03-9.06-21.873l-71.85-71.85C309.236 3.218 301.469 0 293.207 0H67.151C45.965 0 28.73 17.236 28.73 38.421v397.89c0 21.185 17.236 38.42 38.421 38.42h78.467a7.532 7.532 0 100-15.063zm224.655-374.11h-36.484c-12.879 0-23.358-10.479-23.358-23.358V25.716z"/><path d="M480.958 368.729l-63.818-107.72c-4.651-7.854-14.773-10.45-22.631-5.795l-15.523 9.197c-12.049 7.138-17.142 21.583-13.005 34.384a23.091 23.091 0 01-16.244-.176c-12.256-3.856-21.574-11.613-36.963-7.721-26.13 6.653-25.336 6.32-27.7 7.13-15.3-8.711-24.497-11.303-40.739-5.02l-14.478 5.597c-6.703 2.59-14.089 1.976-20.283-1.694l-3.951-2.329c1.928-11.552-3.195-23.743-14.043-30.169l-.001-.001-15.522-9.196c-7.836-4.641-17.988-2.043-22.63 5.793L89.607 368.73c-4.651 7.852-2.063 17.977 5.793 22.63l15.522 9.196a29.26 29.26 0 0014.959 4.106 29.648 29.648 0 0016.088-4.752l3.235 1.909-6.83 9.513c-8.139 11.338-5.553 27.104 5.787 35.244 5.244 3.764 11.832 5.483 18.645 4.413 1.081 6.319 4.543 12.233 10.149 16.259 5.265 3.78 11.823 5.501 18.648 4.426 1.084 6.314 4.544 12.223 10.147 16.246 7.53 5.405 16.892 6.03 24.693 2.698a25.105 25.105 0 008.813 11.41c10.808 7.757 25.696 5.734 34.094-4.316l18.15 10.752c12.003 7.113 27.49 3.16 34.607-8.857a25.21 25.21 0 003.362-9.861l.041.025c11.985 7.098 27.507 3.124 34.607-8.858a25.116 25.116 0 003.457-11.009c10.564 2.656 22.077-1.781 27.907-11.621a25.108 25.108 0 003.387-10.224c11.322 4.443 24.555.149 30.949-10.643 3.439-5.805 4.412-12.601 2.739-19.138a25.148 25.148 0 00-5.133-10.002l10.004-5.845c8.463 3.474 18.121 2.918 26.215-1.876l15.52-9.196c7.856-4.65 10.451-14.773 5.796-22.63zM118.6 387.597l-15.522-9.197a1.458 1.458 0 01-.511-1.993l63.82-107.723a1.457 1.457 0 011.994-.51l15.521 9.195c6.897 4.087 9.055 12.933 5.043 19.704l-50.641 85.48c-4.042 6.824-12.88 9.085-19.704 5.044zm34.345 46.742a10.186 10.186 0 01-2.334-14.222l10.039-13.984c3.198-4.455 9.571-5.674 14.222-2.335 4.565 3.277 5.612 9.656 2.336 14.221l-10.04 13.984c-3.277 4.567-9.66 5.611-14.223 2.336zm28.795 20.673c-4.565-3.278-5.612-9.659-2.335-14.223l10.039-13.983v-.001l.001-.001 11.079-15.432a10.122 10.122 0 016.627-4.113 10.124 10.124 0 017.595 1.778 10.123 10.123 0 014.112 6.626 10.122 10.122 0 01-1.778 7.595l-21.119 29.418a10.184 10.184 0 01-14.221 2.336zm28.795 20.671c-4.563-3.276-5.611-9.652-2.34-14.216l.004-.006 21.119-29.417c3.275-4.564 9.659-5.612 14.222-2.336 4.565 3.277 5.612 9.657 2.335 14.222l-9.383 13.071-.001.001-11.735 16.346c-3.277 4.565-9.655 5.614-14.221 2.335zm33.506 14.108c-4.562-3.276-5.611-9.649-2.342-14.214l7.029-9.79c3.276-4.566 9.659-5.61 14.222-2.335 4.564 3.276 5.612 9.657 2.335 14.222l-7.023 9.781c-3.276 4.566-9.658 5.614-14.221 2.336zm168.819-60.052c-2.866 4.837-9.13 6.441-13.968 3.576l-66.67-39.498a7.531 7.531 0 10-7.679 12.959l50.403 29.861.001.001a10.191 10.191 0 013.576 13.969c-2.867 4.839-9.134 6.44-13.97 3.577a2383777.49 2383777.49 0 01-50.43-29.877 7.531 7.531 0 10-7.679 12.959l37.138 22.002.008.005a10.191 10.191 0 013.569 13.965c-2.867 4.839-9.132 6.442-13.971 3.576l-19.931-11.807-.007-.004-.006-.003-14.545-8.618a7.53 7.53 0 00-10.319 2.64 7.531 7.531 0 002.64 10.319l14.548 8.619.006.004a10.19 10.19 0 013.576 13.968c-2.867 4.839-9.132 6.442-13.971 3.576l-16.971-10.053c7.275-11.226 4.508-26.354-6.473-34.236a25.106 25.106 0 00-10.489-4.374c3.896-10.417.537-22.579-8.922-29.369-5.6-4.022-12.305-5.411-18.633-4.419-1.126-6.585-4.727-12.353-10.16-16.252-10.218-7.333-24.104-5.924-32.681 2.753a25.1 25.1 0 00-7.193-7.992c-8.491-6.094-19.515-6.151-27.921-1.018l-3.451-2.037 47.37-79.959 2.255 1.33c9.96 5.9 22.114 7.13 33.378 2.774l14.478-5.597c8.285-3.202 12.854-3.411 21.049.456a33.716 33.716 0 00-8.545 22.457v33.395c0 8.87 7.211 16.091 16.074 16.097h.022c8.89 0 17.25-3.461 23.539-9.746 3.666-3.664 6.372-8.032 7.994-12.8 9.725 5.759 90.072 53.338 99.387 58.857a10.126 10.126 0 014.68 6.243 10.124 10.124 0 01-1.106 7.721zm54.628-51.339l-15.523 9.197c-6.824 4.04-15.662 1.777-19.702-5.043l-23.736-40.065a7.533 7.533 0 00-12.961 7.677l23.736 40.066c.447.754.932 1.471 1.434 2.17l-6.599 3.855a38.198 38.198 0 00-3.844 2.605L307.97 338.267c-5.013-2.967-11.369.65-11.369 6.48-.079.45.778 8.192-5.345 14.313a18.12 18.12 0 01-12.891 5.337h-.012a1.029 1.029 0 01-1.021-1.034v-33.395c0-8.724 6.002-16.084 14.119-18.139l25.016-6.331c9.077-2.294 14.208 2.553 27.799 7.153 9.435 3.65 19.694 3.425 28.8-.464l4.546 7.674a7.532 7.532 0 1012.961-7.677l-8.954-15.113c-4.051-6.838-1.794-15.65 5.043-19.703l15.522-9.195a1.454 1.454 0 011.995.511l63.818 107.721a1.452 1.452 0 01-.509 1.995z"/></svg>