<svg xmlns="http://www.w3.org/2000/svg" width="512" height="512"><g data-name="06-cart"><g data-name="linear color"><path d="M480 6H32A26.03 26.03 0 006 32v352a26.03 26.03 0 0026 26h176.671l-6.806 54.431a238.492 238.492 0 00-47.412 23.249A10 10 0 00160 506h192a10 10 0 005.547-18.32 238.492 238.492 0 00-47.412-23.249L303.329 410H480a26.03 26.03 0 0026-26V32a26.03 26.03 0 00-26-26zM32 26h448a6.006 6.006 0 016 6v278H26V32a6.006 6.006 0 016-6zm176 460h-6.526c15.893-6.393 35.309-12 54.526-12 19.148 0 38.556 5.607 54.459 12H208zm81.2-27.84a134.521 134.521 0 00-66.39 0l6.017-48.16h54.346zM486 384a6.006 6.006 0 01-6 6H32a6.006 6.006 0 01-6-6v-54h460z"/><path d="M240 370h32a10 10 0 000-20h-32a10 10 0 000 20zM104 74h24.792l45.721 137.162A9.969 9.969 0 00176 214a26.036 26.036 0 1013.831 4h83.462a63.304 63.304 0 00-.293 6 63 63 0 1063-63c-1.987 0-3.949.1-5.89.284l15.377-46.121A10 10 0 00336 102H208a10 10 0 000 20h114.125l-9.348 28.039A9.979 9.979 0 00312 150h-88a10 10 0 000 20h79.589a63.409 63.409 0 00-24.951 28h-87.43L145.487 60.838A10 10 0 00136 54h-32a10 10 0 000 20zm72 172a6 6 0 116-6 6.006 6.006 0 01-6 6zm203-22a43 43 0 11-43-43 43.049 43.049 0 0143 43z"/><path d="M315.528 232.944l16 8a10 10 0 0012.792-3.4l16-24a10 10 0 00-16.64-11.094l-11.1 16.655-8.1-4.052a10 10 0 00-8.944 17.888z"/></g></g></svg>