<svg height="512" viewBox="0 0 64 64" width="512" xmlns="http://www.w3.org/2000/svg"><path d="M32 19c-7.168 0-13 5.832-13 13s5.832 13 13 13 13-5.832 13-13-5.832-13-13-13zM21 32c0-.338.021-.67.051-1H42.95c.029.33.05.662.05 1s-.021.67-.051 1H21.051A11.01 11.01 0 0121 32zm12-3h-2v-4h2zm8.786-2c.325.634.59 1.302.788 2H41v-2zm-1.307-2H40a1 1 0 00-1 1v3h-4v-5a1 1 0 00-1-1h-4a1 1 0 00-1 1v5h-4v-5.479A10.986 10.986 0 0140.479 25zM23 25.695V29h-1.574A10.958 10.958 0 0123 25.695zM25.695 41h12.609c-1.787 1.256-3.959 2-6.305 2s-4.516-.744-6.304-2zm14.784-2H23.521a10.98 10.98 0 01-2.095-4h21.147a10.978 10.978 0 01-2.094 4z"/><path d="M61.878 56.464L50.345 44.931c.399-.755.29-1.71-.345-2.345L48.414 41H56c1.654 0 3-1.346 3-3V4c0-1.654-1.346-3-3-3H4C2.346 1 1 2.346 1 4v34c0 1.654 1.346 3 3 3h13.604c3.009 4.795 8.329 8 14.396 8 2.779 0 5.397-.684 7.715-1.871L42.586 50c.39.39.902.585 1.414.585.322 0 .64-.086.931-.24l11.533 11.533A3.803 3.803 0 0059.171 63 3.832 3.832 0 0063 59.171a3.803 3.803 0 00-1.122-2.707zM4 39c-.551 0-1-.449-1-1V4c0-.551.449-1 1-1h52c.551 0 1 .449 1 1v34c0 .551-.449 1-1 1h-8.526c.572-1.26.993-2.599 1.244-4H52a1 1 0 001-1v-4a1 1 0 00-1-1h-3.281C47.296 21.054 40.349 15 32 15c-2.497 0-4.862.555-7 1.526V12a1 1 0 00-1-1h-4a1 1 0 00-1 1v9.068A16.932 16.932 0 0015.281 29H15V6a1 1 0 00-1-1h-4a1 1 0 00-1 1v23H8a1 1 0 00-1 1v4a1 1 0 001 1h7.281c.251 1.401.672 2.74 1.244 4zm44.949-8H51v2h-2.051c.02-.333.051-.662.051-1s-.031-.667-.051-1zM23 17.604c-.702.44-1.372.923-2 1.458V13h2zM15.051 33H9v-2h6.051c-.02.333-.051.662-.051 1s.031.667.051 1zM13 29h-2V7h2zm4 3c0-8.271 6.729-15 15-15s15 6.729 15 15-6.729 15-15 15-15-6.729-15-15zm24.503 14.089a17.16 17.16 0 004.586-4.586L48.586 44 44 48.586zM59.171 61c-.488 0-.947-.19-1.293-.536L46.414 49 49 46.414l11.464 11.464A1.83 1.83 0 0159.171 61z"/></svg>