<svg xmlns="http://www.w3.org/2000/svg" height="512" viewBox="0 0 64 64" width="512"><path d="M12 60h40v2H12zm40.54-4l7.37-16.59a.993.993 0 00-.5-1.32L54 35.68V17a1 1 0 00-1-1h-5v-5a1 1 0 00-1-1h-3V3a1 1 0 00-1-1h-8a1 1 0 00-1 1v7h-4V3a1 1 0 00-1-1h-8a1 1 0 00-1 1v7h-3a1 1 0 00-1 1v5h-5a1 1 0 00-1 1v18.68l-5.41 2.41a.993.993 0 00-.5 1.32L11.46 56H2v2h60v-2zM36 4h6v6h-6zM22 4h6v6h-6zm-4 8h28v4H18zm-6 6h40v16.92l-19.67-6.86a.937.937 0 00-.66 0L12 34.92zm12.39 38l3.33-10h8.56l3.33 10zm25.96 0h-8.63l-3.77-11.32A1.014 1.014 0 0037 44H27a1.014 1.014 0 00-.95.68L22.28 56h-8.63L6.32 39.51l5.01-2.24L32 30.06l20.59 7.18 5.09 2.27z" data-original="#000000" class="active-path" data-old_color="#000000" fill="#ec644b"/><path d="M15 28h12a1 1 0 001-1v-6a1 1 0 00-1-1H15a1 1 0 00-1 1v6a1 1 0 001 1zm1-6h10v4H16zm21 6h12a1 1 0 001-1v-6a1 1 0 00-1-1H37a1 1 0 00-1 1v6a1 1 0 001 1zm1-6h10v4H38zM50 8h2V6h2V4h-2V2h-2v2h-2v2h2zm10 3V9h-2v2h-2v2h2v2h2v-2h2v-2zM12 8h2V6h2V4h-2V2h-2v2h-2v2h2zm-8 7h2v-2h2v-2H6V9H4v2H2v2h2z" data-original="#000000" class="active-path" data-old_color="#000000" fill="#ec644b"/></svg>